<mxfile host="app.diagrams.net" agent="Mozilla/5.0 (Windows NT 10.0; Win64; x64) AppleWebKit/537.36 (KHTML, like Gecko) Chrome/138.0.0.0 Safari/537.36" version="28.0.6">
  <diagram name="PÃ¡gina-1" id="6R_OjLi72vYt-dycN_tc">
    <mxGraphModel grid="1" page="1" gridSize="10" guides="1" tooltips="1" connect="1" arrows="1" fold="1" pageScale="1" pageWidth="827" pageHeight="1169" math="0" shadow="0">
      <root>
        <mxCell id="0" />
        <mxCell id="1" parent="0" />
        <mxCell id="uF2BdP-AfKYhrIXsqCJd-1" style="edgeStyle=orthogonalEdgeStyle;rounded=1;orthogonalLoop=1;jettySize=auto;html=1;entryX=0;entryY=0.5;entryDx=0;entryDy=0;curved=0;endArrow=none;endFill=0;exitX=1;exitY=0.5;exitDx=0;exitDy=0;" edge="1" parent="1" source="uF2BdP-AfKYhrIXsqCJd-14">
          <mxGeometry relative="1" as="geometry">
            <mxPoint x="667" y="285" as="targetPoint" />
          </mxGeometry>
        </mxCell>
        <mxCell id="uF2BdP-AfKYhrIXsqCJd-2" value="" style="verticalLabelPosition=bottom;verticalAlign=top;html=1;shape=mxgraph.basic.rect;fillColor2=none;strokeWidth=1;size=20;indent=5;" vertex="1" parent="1">
          <mxGeometry x="60" y="85" width="480" height="400" as="geometry" />
        </mxCell>
        <mxCell id="uF2BdP-AfKYhrIXsqCJd-3" value="&lt;span style=&quot;font-size: 12px; font-weight: 400; text-wrap-mode: wrap;&quot;&gt;&amp;lt;&amp;lt;structured&amp;gt;&amp;gt;&lt;/span&gt;&lt;div&gt;Galeria&amp;nbsp;&lt;/div&gt;" style="text;strokeColor=none;fillColor=none;html=1;fontSize=24;fontStyle=1;verticalAlign=middle;align=center;" vertex="1" parent="1">
          <mxGeometry x="215" y="100" width="170" height="40" as="geometry" />
        </mxCell>
        <mxCell id="uF2BdP-AfKYhrIXsqCJd-4" value="&lt;div&gt;&amp;lt;&amp;lt;part&amp;gt;&amp;gt;&lt;br&gt;D&lt;span style=&quot;background-color: transparent; color: light-dark(rgb(0, 0, 0), rgb(255, 255, 255));&quot;&gt;escripcion:&lt;br&gt;DescripcionGaleria&lt;/span&gt;&lt;/div&gt;" style="html=1;whiteSpace=wrap;" vertex="1" parent="1">
          <mxGeometry x="100" y="370" width="120" height="60" as="geometry" />
        </mxCell>
        <mxCell id="uF2BdP-AfKYhrIXsqCJd-5" value="&amp;lt;&amp;lt;part&amp;gt;&amp;gt;&lt;div&gt;Comentario: Comentario&lt;/div&gt;" style="html=1;whiteSpace=wrap;" vertex="1" parent="1">
          <mxGeometry x="370" y="190" width="140" height="50" as="geometry" />
        </mxCell>
        <mxCell id="uF2BdP-AfKYhrIXsqCJd-6" value="&amp;lt;&amp;lt;part&amp;gt;&amp;gt;&lt;br&gt;Archivo: ArchivoMultimedia&lt;span style=&quot;color: rgba(0, 0, 0, 0); font-family: monospace; font-size: 0px; text-align: start; text-wrap-mode: nowrap;&quot;&gt;%3CmxGraphModel%3E%3Croot%3E%3CmxCell%20id%3D%220%22%2F%3E%3CmxCell%20id%3D%221%22%20parent%3D%220%22%2F%3E%3CmxCell%20id%3D%222%22%20value%3D%22Contrato%22%20style%3D%22html%3D1%3BwhiteSpace%3Dwrap%3B%22%20vertex%3D%221%22%20parent%3D%221%22%3E%3CmxGeometry%20x%3D%22130%22%20y%3D%22130%22%20width%3D%22110%22%20height%3D%2250%22%20as%3D%22geometry%22%2F%3E%3C%2FmxCell%3E%3C%2Froot%3E%3C%2FmxGraphModel%3E&lt;/span&gt;" style="html=1;whiteSpace=wrap;" vertex="1" parent="1">
          <mxGeometry x="95" y="190" width="120" height="50" as="geometry" />
        </mxCell>
        <mxCell id="uF2BdP-AfKYhrIXsqCJd-7" value="" style="text;strokeColor=none;fillColor=none;align=left;verticalAlign=middle;spacingTop=-1;spacingLeft=4;spacingRight=4;rotatable=0;labelPosition=right;points=[];portConstraint=eastwest;" vertex="1" parent="1">
          <mxGeometry x="370" y="240" width="20" height="14" as="geometry" />
        </mxCell>
        <mxCell id="uF2BdP-AfKYhrIXsqCJd-8" style="edgeStyle=orthogonalEdgeStyle;rounded=0;orthogonalLoop=1;jettySize=auto;html=1;entryX=0.5;entryY=0;entryDx=0;entryDy=0;endArrow=none;endFill=0;" edge="1" parent="1" source="uF2BdP-AfKYhrIXsqCJd-9" target="uF2BdP-AfKYhrIXsqCJd-10">
          <mxGeometry relative="1" as="geometry">
            <Array as="points">
              <mxPoint x="155" y="280" />
              <mxPoint x="155" y="280" />
            </Array>
          </mxGeometry>
        </mxCell>
        <mxCell id="uF2BdP-AfKYhrIXsqCJd-9" value="" style="rounded=0;whiteSpace=wrap;html=1;" vertex="1" parent="1">
          <mxGeometry x="140" y="240" width="30" height="30" as="geometry" />
        </mxCell>
        <mxCell id="uF2BdP-AfKYhrIXsqCJd-10" value="" style="rounded=0;whiteSpace=wrap;html=1;" vertex="1" parent="1">
          <mxGeometry x="140" y="340" width="30" height="30" as="geometry" />
        </mxCell>
        <mxCell id="uF2BdP-AfKYhrIXsqCJd-11" value="" style="rounded=0;whiteSpace=wrap;html=1;" vertex="1" parent="1">
          <mxGeometry x="344" y="200" width="30" height="30" as="geometry" />
        </mxCell>
        <mxCell id="uF2BdP-AfKYhrIXsqCJd-12" style="edgeStyle=orthogonalEdgeStyle;rounded=0;orthogonalLoop=1;jettySize=auto;html=1;entryX=0;entryY=0.5;entryDx=0;entryDy=0;endArrow=none;endFill=0;" edge="1" parent="1" source="uF2BdP-AfKYhrIXsqCJd-13" target="uF2BdP-AfKYhrIXsqCJd-11">
          <mxGeometry relative="1" as="geometry" />
        </mxCell>
        <mxCell id="uF2BdP-AfKYhrIXsqCJd-13" value="" style="rounded=0;whiteSpace=wrap;html=1;" vertex="1" parent="1">
          <mxGeometry x="210" y="200" width="30" height="30" as="geometry" />
        </mxCell>
        <mxCell id="uF2BdP-AfKYhrIXsqCJd-14" value="" style="rounded=0;whiteSpace=wrap;html=1;" vertex="1" parent="1">
          <mxGeometry x="520" y="270" width="30" height="30" as="geometry" />
        </mxCell>
        <mxCell id="uF2BdP-AfKYhrIXsqCJd-15" value="&lt;font style=&quot;vertical-align: inherit;&quot;&gt;&lt;font style=&quot;vertical-align: inherit;&quot;&gt;&amp;lt;&amp;lt;port&amp;gt;&amp;gt;&lt;/font&gt;&lt;/font&gt;&lt;div&gt;interfazCliente : Cliente&amp;nbsp;&lt;/div&gt;" style="html=1;whiteSpace=wrap;" vertex="1" parent="1">
          <mxGeometry x="680" y="260" width="120" height="50" as="geometry" />
        </mxCell>
        <mxCell id="uF2BdP-AfKYhrIXsqCJd-16" value="" style="rounded=0;whiteSpace=wrap;html=1;" vertex="1" parent="1">
          <mxGeometry x="660" y="270" width="30" height="30" as="geometry" />
        </mxCell>
        <mxCell id="uF2BdP-AfKYhrIXsqCJd-17" value="&lt;font style=&quot;vertical-align: inherit;&quot;&gt;&lt;font style=&quot;vertical-align: inherit;&quot;&gt;&amp;lt;&amp;lt;port&amp;gt;&amp;gt;&lt;/font&gt;&lt;/font&gt;&lt;div&gt;interfazEvento&amp;nbsp; Evento&amp;nbsp;&amp;nbsp;&lt;/div&gt;" style="html=1;whiteSpace=wrap;" vertex="1" parent="1">
          <mxGeometry x="690" y="420" width="120" height="50" as="geometry" />
        </mxCell>
        <mxCell id="uF2BdP-AfKYhrIXsqCJd-18" value="&lt;font style=&quot;vertical-align: inherit;&quot;&gt;&lt;font style=&quot;vertical-align: inherit;&quot;&gt;&amp;lt;&amp;lt;port&amp;gt;&amp;gt;&lt;/font&gt;&lt;/font&gt;&lt;div&gt;interfazAdmin : Admin&amp;nbsp; &amp;nbsp;&lt;/div&gt;" style="html=1;whiteSpace=wrap;" vertex="1" parent="1">
          <mxGeometry x="680" y="140" width="120" height="50" as="geometry" />
        </mxCell>
        <mxCell id="uF2BdP-AfKYhrIXsqCJd-19" value="" style="rounded=0;whiteSpace=wrap;html=1;" vertex="1" parent="1">
          <mxGeometry x="520" y="150" width="30" height="30" as="geometry" />
        </mxCell>
        <mxCell id="uF2BdP-AfKYhrIXsqCJd-20" value="" style="rounded=0;whiteSpace=wrap;html=1;" vertex="1" parent="1">
          <mxGeometry x="660" y="150" width="30" height="30" as="geometry" />
        </mxCell>
        <mxCell id="uF2BdP-AfKYhrIXsqCJd-21" value="" style="rounded=0;whiteSpace=wrap;html=1;" vertex="1" parent="1">
          <mxGeometry x="530" y="430" width="30" height="30" as="geometry" />
        </mxCell>
        <mxCell id="uF2BdP-AfKYhrIXsqCJd-22" value="" style="rounded=0;whiteSpace=wrap;html=1;" vertex="1" parent="1">
          <mxGeometry x="670" y="430" width="30" height="30" as="geometry" />
        </mxCell>
        <mxCell id="uF2BdP-AfKYhrIXsqCJd-23" value="&lt;span style=&quot;font-weight: normal;&quot;&gt;&amp;lt;&amp;lt;note&amp;gt;&amp;gt;&lt;/span&gt;&lt;div&gt;&lt;span style=&quot;font-weight: 400;&quot;&gt;gestionarArchivos&lt;/span&gt;&lt;/div&gt;&lt;div&gt;&lt;span style=&quot;font-weight: 400;&quot;&gt;eliminarArchivo&lt;/span&gt;&lt;/div&gt;" style="html=1;whiteSpace=wrap;fontStyle=1" vertex="1" parent="1">
          <mxGeometry x="940" y="140" width="120" height="50" as="geometry" />
        </mxCell>
        <mxCell id="uF2BdP-AfKYhrIXsqCJd-24" value="&amp;lt;&amp;lt;note&amp;gt;&amp;gt;&lt;div&gt;verGaleria&lt;br&gt;&lt;div&gt;agregarComentario&lt;/div&gt;&lt;/div&gt;" style="html=1;whiteSpace=wrap;" vertex="1" parent="1">
          <mxGeometry x="936" y="250" width="130" height="80" as="geometry" />
        </mxCell>
        <mxCell id="uF2BdP-AfKYhrIXsqCJd-25" value="&amp;lt;&amp;lt;note&amp;gt;&amp;gt;&lt;div&gt;&amp;nbsp;asociarGaleria&lt;/div&gt;&lt;div&gt;&lt;br&gt;&lt;/div&gt;" style="html=1;whiteSpace=wrap;" vertex="1" parent="1">
          <mxGeometry x="940" y="415" width="130" height="80" as="geometry" />
        </mxCell>
        <mxCell id="uF2BdP-AfKYhrIXsqCJd-26" style="rounded=0;orthogonalLoop=1;jettySize=auto;html=1;exitX=1;exitY=0.5;exitDx=0;exitDy=0;endArrow=none;endFill=0;" edge="1" parent="1" source="uF2BdP-AfKYhrIXsqCJd-27" target="uF2BdP-AfKYhrIXsqCJd-32">
          <mxGeometry relative="1" as="geometry" />
        </mxCell>
        <mxCell id="uF2BdP-AfKYhrIXsqCJd-27" value="" style="rounded=0;whiteSpace=wrap;html=1;" vertex="1" parent="1">
          <mxGeometry x="790" y="150" width="30" height="30" as="geometry" />
        </mxCell>
        <mxCell id="uF2BdP-AfKYhrIXsqCJd-28" style="rounded=0;orthogonalLoop=1;jettySize=auto;html=1;entryX=0;entryY=0.5;entryDx=0;entryDy=0;endArrow=none;endFill=0;" edge="1" parent="1" source="uF2BdP-AfKYhrIXsqCJd-29" target="uF2BdP-AfKYhrIXsqCJd-33">
          <mxGeometry relative="1" as="geometry" />
        </mxCell>
        <mxCell id="uF2BdP-AfKYhrIXsqCJd-29" value="" style="rounded=0;whiteSpace=wrap;html=1;" vertex="1" parent="1">
          <mxGeometry x="790" y="274" width="30" height="30" as="geometry" />
        </mxCell>
        <mxCell id="uF2BdP-AfKYhrIXsqCJd-30" style="rounded=0;orthogonalLoop=1;jettySize=auto;html=1;entryX=0;entryY=0.5;entryDx=0;entryDy=0;endArrow=none;endFill=0;" edge="1" parent="1" source="uF2BdP-AfKYhrIXsqCJd-31" target="uF2BdP-AfKYhrIXsqCJd-34">
          <mxGeometry relative="1" as="geometry" />
        </mxCell>
        <mxCell id="uF2BdP-AfKYhrIXsqCJd-31" value="" style="rounded=0;whiteSpace=wrap;html=1;" vertex="1" parent="1">
          <mxGeometry x="790" y="430" width="30" height="30" as="geometry" />
        </mxCell>
        <mxCell id="uF2BdP-AfKYhrIXsqCJd-32" value="" style="rounded=0;whiteSpace=wrap;html=1;" vertex="1" parent="1">
          <mxGeometry x="920" y="150" width="30" height="30" as="geometry" />
        </mxCell>
        <mxCell id="uF2BdP-AfKYhrIXsqCJd-33" value="" style="rounded=0;whiteSpace=wrap;html=1;" vertex="1" parent="1">
          <mxGeometry x="910" y="274" width="30" height="30" as="geometry" />
        </mxCell>
        <mxCell id="uF2BdP-AfKYhrIXsqCJd-34" value="" style="rounded=0;whiteSpace=wrap;html=1;" vertex="1" parent="1">
          <mxGeometry x="925" y="430" width="30" height="30" as="geometry" />
        </mxCell>
        <mxCell id="uF2BdP-AfKYhrIXsqCJd-35" style="rounded=1;orthogonalLoop=1;jettySize=auto;html=1;entryX=0;entryY=0.5;entryDx=0;entryDy=0;endArrow=none;endFill=0;exitX=1;exitY=0.5;exitDx=0;exitDy=0;" edge="1" parent="1" source="uF2BdP-AfKYhrIXsqCJd-21" target="uF2BdP-AfKYhrIXsqCJd-22">
          <mxGeometry relative="1" as="geometry">
            <mxPoint x="700" y="454.5" as="targetPoint" />
            <mxPoint x="573" y="454.5" as="sourcePoint" />
          </mxGeometry>
        </mxCell>
        <mxCell id="uF2BdP-AfKYhrIXsqCJd-36" style="rounded=1;orthogonalLoop=1;jettySize=auto;html=1;entryX=0;entryY=0.5;entryDx=0;entryDy=0;endArrow=none;endFill=0;" edge="1" parent="1" source="uF2BdP-AfKYhrIXsqCJd-19" target="uF2BdP-AfKYhrIXsqCJd-20">
          <mxGeometry relative="1" as="geometry">
            <mxPoint x="687" y="174.38" as="targetPoint" />
            <mxPoint x="560" y="174.38" as="sourcePoint" />
          </mxGeometry>
        </mxCell>
        <mxCell id="uF2BdP-AfKYhrIXsqCJd-37" value="&lt;table&gt;&lt;tbody&gt;&lt;tr&gt;&lt;td data-start=&quot;2163&quot; data-end=&quot;2188&quot; data-col-size=&quot;sm&quot;&gt;&lt;/td&gt;&lt;/tr&gt;&lt;/tbody&gt;&lt;/table&gt;&lt;table&gt;&lt;tbody&gt;&lt;tr&gt;&lt;td data-start=&quot;2188&quot; data-end=&quot;2214&quot; data-col-size=&quot;sm&quot;&gt;1..*&lt;/td&gt;&lt;/tr&gt;&lt;/tbody&gt;&lt;/table&gt;" style="text;whiteSpace=wrap;html=1;" vertex="1" parent="1">
          <mxGeometry x="820" y="260" width="60" height="50" as="geometry" />
        </mxCell>
        <mxCell id="uF2BdP-AfKYhrIXsqCJd-38" value="&lt;table&gt;&lt;tbody&gt;&lt;tr&gt;&lt;td data-start=&quot;2163&quot; data-end=&quot;2188&quot; data-col-size=&quot;sm&quot;&gt;&lt;/td&gt;&lt;/tr&gt;&lt;/tbody&gt;&lt;/table&gt;1.*" style="text;whiteSpace=wrap;html=1;" vertex="1" parent="1">
          <mxGeometry x="890" y="260" width="30" height="40" as="geometry" />
        </mxCell>
        <mxCell id="uF2BdP-AfKYhrIXsqCJd-39" value="&lt;table&gt;&lt;tbody&gt;&lt;tr&gt;&lt;td data-start=&quot;2163&quot; data-end=&quot;2188&quot; data-col-size=&quot;sm&quot;&gt;&lt;/td&gt;&lt;/tr&gt;&lt;/tbody&gt;&lt;/table&gt;&lt;table&gt;&lt;tbody&gt;&lt;tr&gt;&lt;td data-start=&quot;2188&quot; data-end=&quot;2214&quot; data-col-size=&quot;sm&quot;&gt;1..*&lt;/td&gt;&lt;/tr&gt;&lt;/tbody&gt;&lt;/table&gt;" style="text;whiteSpace=wrap;html=1;" vertex="1" parent="1">
          <mxGeometry x="820" y="410" width="60" height="50" as="geometry" />
        </mxCell>
        <mxCell id="uF2BdP-AfKYhrIXsqCJd-40" value="&lt;table&gt;&lt;tbody&gt;&lt;tr&gt;&lt;td data-start=&quot;2163&quot; data-end=&quot;2188&quot; data-col-size=&quot;sm&quot;&gt;&lt;/td&gt;&lt;/tr&gt;&lt;/tbody&gt;&lt;/table&gt;1" style="text;whiteSpace=wrap;html=1;" vertex="1" parent="1">
          <mxGeometry x="905" y="415" width="60" height="50" as="geometry" />
        </mxCell>
        <mxCell id="uF2BdP-AfKYhrIXsqCJd-41" value="&lt;table&gt;&lt;tbody&gt;&lt;tr&gt;&lt;td data-start=&quot;2163&quot; data-end=&quot;2188&quot; data-col-size=&quot;sm&quot;&gt;&lt;/td&gt;&lt;/tr&gt;&lt;/tbody&gt;&lt;/table&gt;&lt;table&gt;&lt;tbody&gt;&lt;tr&gt;&lt;td data-start=&quot;2188&quot; data-end=&quot;2214&quot; data-col-size=&quot;sm&quot;&gt;1..*&lt;/td&gt;&lt;/tr&gt;&lt;/tbody&gt;&lt;/table&gt;" style="text;whiteSpace=wrap;html=1;" vertex="1" parent="1">
          <mxGeometry x="820" y="130" width="60" height="50" as="geometry" />
        </mxCell>
        <mxCell id="uF2BdP-AfKYhrIXsqCJd-42" value="1" style="text;whiteSpace=wrap;html=1;" vertex="1" parent="1">
          <mxGeometry x="910" y="140" width="60" height="50" as="geometry" />
        </mxCell>
        <mxCell id="uF2BdP-AfKYhrIXsqCJd-43" value="1.*" style="text;whiteSpace=wrap;html=1;" vertex="1" parent="1">
          <mxGeometry x="552" y="130" width="60" height="50" as="geometry" />
        </mxCell>
        <mxCell id="uF2BdP-AfKYhrIXsqCJd-44" value="&lt;table&gt;&lt;tbody&gt;&lt;tr&gt;&lt;td data-start=&quot;2163&quot; data-end=&quot;2188&quot; data-col-size=&quot;sm&quot;&gt;&lt;/td&gt;&lt;/tr&gt;&lt;/tbody&gt;&lt;/table&gt;&lt;table&gt;&lt;tbody&gt;&lt;tr&gt;&lt;td data-start=&quot;2188&quot; data-end=&quot;2214&quot; data-col-size=&quot;sm&quot;&gt;1..*&lt;/td&gt;&lt;/tr&gt;&lt;/tbody&gt;&lt;/table&gt;" style="text;whiteSpace=wrap;html=1;" vertex="1" parent="1">
          <mxGeometry x="630" y="130" width="60" height="50" as="geometry" />
        </mxCell>
        <mxCell id="uF2BdP-AfKYhrIXsqCJd-45" value="1.*" style="text;whiteSpace=wrap;html=1;" vertex="1" parent="1">
          <mxGeometry x="550" y="250" width="60" height="50" as="geometry" />
        </mxCell>
        <mxCell id="uF2BdP-AfKYhrIXsqCJd-46" value="&lt;table&gt;&lt;tbody&gt;&lt;tr&gt;&lt;td data-start=&quot;2163&quot; data-end=&quot;2188&quot; data-col-size=&quot;sm&quot;&gt;&lt;/td&gt;&lt;/tr&gt;&lt;/tbody&gt;&lt;/table&gt;&lt;table&gt;&lt;tbody&gt;&lt;tr&gt;&lt;td data-start=&quot;2188&quot; data-end=&quot;2214&quot; data-col-size=&quot;sm&quot;&gt;1..*&lt;/td&gt;&lt;/tr&gt;&lt;/tbody&gt;&lt;/table&gt;" style="text;whiteSpace=wrap;html=1;" vertex="1" parent="1">
          <mxGeometry x="630" y="254" width="60" height="50" as="geometry" />
        </mxCell>
        <mxCell id="uF2BdP-AfKYhrIXsqCJd-47" value="1.*" style="text;whiteSpace=wrap;html=1;" vertex="1" parent="1">
          <mxGeometry x="560" y="415" width="60" height="50" as="geometry" />
        </mxCell>
        <mxCell id="uF2BdP-AfKYhrIXsqCJd-48" value="&lt;table&gt;&lt;tbody&gt;&lt;tr&gt;&lt;td data-start=&quot;2163&quot; data-end=&quot;2188&quot; data-col-size=&quot;sm&quot;&gt;&lt;/td&gt;&lt;/tr&gt;&lt;/tbody&gt;&lt;/table&gt;&lt;table&gt;&lt;tbody&gt;&lt;tr&gt;&lt;td data-start=&quot;2188&quot; data-end=&quot;2214&quot; data-col-size=&quot;sm&quot;&gt;1..*&lt;/td&gt;&lt;/tr&gt;&lt;/tbody&gt;&lt;/table&gt;" style="text;whiteSpace=wrap;html=1;" vertex="1" parent="1">
          <mxGeometry x="640" y="410" width="60" height="50" as="geometry" />
        </mxCell>
        <mxCell id="6xXJRB4_UqBbj_Bowmbb-2" value="" style="edgeStyle=orthogonalEdgeStyle;rounded=0;orthogonalLoop=1;jettySize=auto;html=1;entryX=0;entryY=0.5;entryDx=0;entryDy=0;endArrow=none;endFill=0;" edge="1" parent="1" source="uF2BdP-AfKYhrIXsqCJd-13">
          <mxGeometry relative="1" as="geometry">
            <mxPoint x="240" y="215" as="sourcePoint" />
            <mxPoint x="344" y="215" as="targetPoint" />
          </mxGeometry>
        </mxCell>
        <mxCell id="6xXJRB4_UqBbj_Bowmbb-1" value="&lt;table&gt;&lt;tbody&gt;&lt;tr&gt;&lt;td data-start=&quot;2163&quot; data-end=&quot;2188&quot; data-col-size=&quot;sm&quot;&gt;&lt;/td&gt;&lt;/tr&gt;&lt;/tbody&gt;&lt;/table&gt;&lt;table&gt;&lt;tbody&gt;&lt;tr&gt;&lt;td data-start=&quot;2188&quot; data-end=&quot;2214&quot; data-col-size=&quot;sm&quot;&gt;1..*&lt;/td&gt;&lt;/tr&gt;&lt;/tbody&gt;&lt;/table&gt;" style="text;whiteSpace=wrap;html=1;" vertex="1" parent="1">
          <mxGeometry x="250" y="180" width="60" height="50" as="geometry" />
        </mxCell>
        <mxCell id="6xXJRB4_UqBbj_Bowmbb-3" value="&lt;table&gt;&lt;tbody&gt;&lt;tr&gt;&lt;td data-start=&quot;2163&quot; data-end=&quot;2188&quot; data-col-size=&quot;sm&quot;&gt;&lt;/td&gt;&lt;/tr&gt;&lt;/tbody&gt;&lt;/table&gt;&lt;table&gt;&lt;tbody&gt;&lt;tr&gt;&lt;td data-start=&quot;2188&quot; data-end=&quot;2214&quot; data-col-size=&quot;sm&quot;&gt;1..*&lt;/td&gt;&lt;/tr&gt;&lt;/tbody&gt;&lt;/table&gt;" style="text;whiteSpace=wrap;html=1;" vertex="1" parent="1">
          <mxGeometry x="314" y="180" width="60" height="50" as="geometry" />
        </mxCell>
        <mxCell id="6xXJRB4_UqBbj_Bowmbb-5" value="&lt;table&gt;&lt;tbody&gt;&lt;tr&gt;&lt;td data-start=&quot;2163&quot; data-end=&quot;2188&quot; data-col-size=&quot;sm&quot;&gt;&lt;/td&gt;&lt;/tr&gt;&lt;/tbody&gt;&lt;/table&gt;&lt;table&gt;&lt;tbody&gt;&lt;tr&gt;&lt;td data-start=&quot;2188&quot; data-end=&quot;2214&quot; data-col-size=&quot;sm&quot;&gt;1..*&lt;/td&gt;&lt;/tr&gt;&lt;/tbody&gt;&lt;/table&gt;" style="text;whiteSpace=wrap;html=1;" vertex="1" parent="1">
          <mxGeometry x="155" y="260" width="60" height="50" as="geometry" />
        </mxCell>
        <mxCell id="6xXJRB4_UqBbj_Bowmbb-6" value="&lt;table&gt;&lt;tbody&gt;&lt;tr&gt;&lt;td data-start=&quot;2163&quot; data-end=&quot;2188&quot; data-col-size=&quot;sm&quot;&gt;&lt;/td&gt;&lt;/tr&gt;&lt;/tbody&gt;&lt;/table&gt;&lt;table&gt;&lt;tbody&gt;&lt;tr&gt;&lt;td data-start=&quot;2188&quot; data-end=&quot;2214&quot; data-col-size=&quot;sm&quot;&gt;1.*&lt;/td&gt;&lt;/tr&gt;&lt;/tbody&gt;&lt;/table&gt;" style="text;whiteSpace=wrap;html=1;" vertex="1" parent="1">
          <mxGeometry x="155" y="300" width="60" height="50" as="geometry" />
        </mxCell>
      </root>
    </mxGraphModel>
  </diagram>
</mxfile>
